<?xml version="1.0" encoding="UTF-8"?>
<svg id="Layer_1" xmlns="http://www.w3.org/2000/svg" version="1.1" viewBox="0 0 595.3 595.3">
  <!-- Generator: Adobe Illustrator 30.2.1, SVG Export Plug-In . SVG Version: 2.1.1 Build 1)  -->
  <defs>
    <style>
      .st0 {
        fill: #00a1e5;
      }

      .st1 {
        fill: #fff;
      }
    </style>
  </defs>
  <circle class="st1" cx="295.9" cy="291.5" r="274.4"/>
  <path class="st0" d="M460.9,247.7l-182.3,182.3c-11.9,11.9-31.6,11.9-43.5,0l-100.2-100.2c-11.9-11.9-11.9-31.6,0-43.5l7.8-7.8c12.1-11.9,31.6-11.9,43.5,0l70.6,70.6,152.7-152.7c11.9-11.9,31.6-11.9,43.5,0l7.8,7.8c11.9,11.9,11.9,31.6,0,43.5h.2ZM297.9,0C133.5,0,.3,133.2.3,297.7s133.2,297.6,297.6,297.6,297.6-133.2,297.6-297.7S476.3,0,311.8,0"/>
</svg>