<?xml version="1.0" encoding="UTF-8"?>
<svg id="Layer_1" xmlns="http://www.w3.org/2000/svg" version="1.1" viewBox="0 0 595.3 595.3">
  <!-- Generator: Adobe Illustrator 30.2.1, SVG Export Plug-In . SVG Version: 2.1.1 Build 1)  -->
  <defs>
    <style>
      .st0 {
        fill: #00a1e5;
      }

      .st1 {
        fill-rule: evenodd;
      }

      .st1, .st2 {
        fill: #fff;
      }
    </style>
  </defs>
  <circle class="st2" cx="296.5" cy="303.2" r="274.4"/>
  <path class="st0" d="M297.3,0C132.9,0-.3,133.2-.3,297.6s133.2,297.7,297.6,297.7,297.7-133.2,297.7-297.7S475.7,0,311.2,0"/>
  <path class="st1" d="M129.5,183.5l167.6-96.8,167.6,96.8-167.6,96.8-167.6-96.8h0ZM283.4,497.7l-167.6-96.6v-193.7l167.6,96.8v193.5h0ZM311,304.2v193.5l167.6-96.8v-193.5l-167.6,96.8h0ZM404.1,406.8h0c-3.2,2-7,2.6-10.5,1.6s-6.8-3.2-8.5-6.6c-1.8-3.2-2.4-7.2-1.4-10.7s3.4-6.6,6.8-8.4l42.4-24.5h0c6.6-3.6,14.7-1.2,18.5,5.4,3.8,6.4,1.6,14.7-4.8,18.5l-42.4,24.5h0v.2Z"/>
</svg>