<?xml version="1.0" encoding="UTF-8"?>
<svg id="Layer_1" xmlns="http://www.w3.org/2000/svg" version="1.1" viewBox="0 0 595.3 595.3">
  <!-- Generator: Adobe Illustrator 30.2.1, SVG Export Plug-In . SVG Version: 2.1.1 Build 1)  -->
  <defs>
    <style>
      .st0 {
        fill: #00a1e5;
      }

      .st1 {
        fill: #fff;
      }
    </style>
  </defs>
  <circle class="st1" cx="296.6" cy="291.5" r="209.3"/>
  <path class="st0" d="M449,255.9c0-14.4-11.8-26.2-26.2-26.2h-251.1c-14.4,0-26.2,11.8-26.2,26.2s11.8,26.2,26.2,26.2h251.1c14.4,0,26.2-11.8,26.2-26.2M344.3,360.4c0-14.4-11.8-26.2-26.2-26.2h-146.6c-14.4,0-26.2,11.8-26.2,26.2s11.8,26.2,26.2,26.2h146.6c14.4,0,26.2-11.8,26.2-26.2M589,351.9c-22.1,117.5-117.5,211.7-235.2,232.8-68,12-132.8,1-187.6-27-5.8-2.9-13-3.9-19.4-1.6l-113.4,37.7c-19.8,6.4-38.8-12.4-32-32l37.7-113c2.1-6.4,1.6-13.2-1.7-19.4C9,374.2-2.7,309.5,9.6,241,30.7,122.9,124.9,27.2,243,5.4c207-38.3,384.9,139.6,345.8,346.4h.2Z"/>
</svg>