<?xml version="1.0" encoding="UTF-8"?>
<svg id="Layer_1" xmlns="http://www.w3.org/2000/svg" version="1.1" viewBox="0 0 595.3 595.3">
  <!-- Generator: Adobe Illustrator 30.2.1, SVG Export Plug-In . SVG Version: 2.1.1 Build 1)  -->
  <defs>
    <style>
      .st0 {
        fill: #00a1e5;
      }

      .st1 {
        fill-rule: evenodd;
      }

      .st1, .st2 {
        fill: #fff;
      }
    </style>
  </defs>
  <circle class="st2" cx="296.2" cy="312.2" r="274.4"/>
  <path class="st0" d="M297.6,0C133.2,0,0,133.2,0,297.6s133.2,297.7,297.6,297.7,297.6-133.2,297.6-297.7S476,0,311.5,0"/>
  <path class="st1" d="M334.4,305.2c6.4-6.4,16.5-6.4,22.9,0,6.4,6.4,6.4,16.5,0,22.9l-62.8,62.8c-6.4,6.4-16.5,6.4-22.9,0l-33.6-33.6c-6.4-6.4-6.4-16.5,0-22.9,6.4-6.4,16.5-6.4,22.9,0l22.3,22.3,51.3-51.3v-.2ZM130.4,228.1v-38.8c0-22.3,18.3-40.6,40.6-40.6h3v8.2c0,20.9,16.9,37.8,37.8,37.8s37.8-16.9,37.8-37.8v-8.2h96.6v8.2c0,20.9,16.9,37.8,37.8,37.8s37.8-16.9,37.8-37.8v-8.2h3c22.3,0,40.6,18.1,40.6,40.6v38.8H130.4ZM195.4,128v29c0,8.9,7.2,16.1,16.1,16.1s16.1-7.2,16.1-16.1v-29c0-8.9-7.2-16.1-16.1-16.1s-16.1,7.2-16.1,16.1h0ZM367.6,128v29c0,8.9,7.2,16.1,16.1,16.1s16.1-7.2,16.1-16.1v-29c0-8.9-7.2-16.1-16.1-16.1s-16.1,7.2-16.1,16.1ZM130.4,405.8c0,22.3,18.1,40.6,40.6,40.6h253.5c22.3,0,40.6-18.1,40.6-40.6v-156.1H130.6v156.1h-.2Z"/>
</svg>