<?xml version="1.0" encoding="UTF-8"?>
<svg id="Layer_1" xmlns="http://www.w3.org/2000/svg" version="1.1" viewBox="0 0 595.3 595.3">
  <!-- Generator: Adobe Illustrator 30.2.1, SVG Export Plug-In . SVG Version: 2.1.1 Build 1)  -->
  <defs>
    <style>
      .st0 {
        fill: #00a1e5;
      }

      .st1 {
        fill: #fff;
      }
    </style>
  </defs>
  <circle class="st1" cx="296.2" cy="303.2" r="274.4"/>
  <path class="st0" d="M297.6,0C133.2,0,0,133.2,0,297.6s133.2,297.7,297.6,297.7,297.6-133.2,297.6-297.7S476,0,311.5,0"/>
  <path class="st1" d="M440.8,143.2v293.1c0,5.8-4.8,10.5-10.5,10.5s-10.5-4.8-10.5-10.5v-122.9l-220.1,123.3c-3.2,1.8-6.6,2.6-10.3,2.8-3.8,0-7.4-1-10.5-3-6.6-3.8-10.3-10.7-10.3-18.1V161.1c0-7.4,4-14.3,10.3-18.1,6.4-3.8,14.3-3.8,20.9-.2l220.1,123.3v-122.9c0-5.8,4.8-10.5,10.5-10.5s10.5,4.8,10.5,10.5h0Z"/>
</svg>