<?xml version="1.0" encoding="UTF-8"?>
<svg id="Layer_1" xmlns="http://www.w3.org/2000/svg" version="1.1" viewBox="0 0 595.3 595.3">
  <!-- Generator: Adobe Illustrator 30.2.1, SVG Export Plug-In . SVG Version: 2.1.1 Build 1)  -->
  <defs>
    <style>
      .st0 {
        fill: #00a1e5;
      }

      .st1 {
        fill: #fff;
      }
    </style>
  </defs>
  <circle class="st0" cx="298.9" cy="297.6" r="297.6"/>
  <path class="st1" d="M494.1,226.8c-35.4,0-64.8,26.1-70,60h-55.3c-5.2-33.9-34.6-60-70-60s-64.8,26.1-70,60h-55.1c-5.2-34.1-34.4-60.2-70-60.2s-70.8,31.8-70.8,70.8,31.8,70.8,70.8,70.8,60.3-22.3,68.4-52.5h58.4c8,30.2,35.6,52.5,68.4,52.5s60.3-22.3,68.4-52.5h58.4c8,30.2,35.6,52.5,68.4,52.5s70.8-31.8,70.8-70.8-31.8-70.8-70.8-70.8l.2.2Z"/>
  <circle class="st0" cx="298.9" cy="297.7" r="45.4"/>
  <circle class="st0" cx="494.4" cy="297.7" r="45.4"/>
</svg>