<?xml version="1.0" encoding="UTF-8"?>
<svg id="Layer_1" xmlns="http://www.w3.org/2000/svg" version="1.1" viewBox="0 0 595.3 595.3">
  <!-- Generator: Adobe Illustrator 30.2.1, SVG Export Plug-In . SVG Version: 2.1.1 Build 1)  -->
  <defs>
    <style>
      .st0 {
        fill: #00a1e5;
      }

      .st1 {
        fill: #fff;
      }
    </style>
  </defs>
  <circle class="st1" cx="294" cy="298.2" r="274.4"/>
  <path class="st0" d="M299.8,0C135.4,0,2.2,133.2,2.2,297.6s133.2,297.7,297.6,297.7,297.7-133.2,297.7-297.7S478.2,0,313.7,0"/>
  <path class="st1" d="M439.2,181.3h-132.2c-1.4,0-2.6-1-3.4-2.2l-24.7-22.1c-5.8-5.4-13.3-8.4-21.3-8.4h-97.4c-16.5-.2-30.2,12.7-30.4,29.2v211.6c.4,16.5,13.9,29.6,30.4,29.2h278.8c16.5.2,30.2-12.7,30.4-29.2v-178.9c-.4-16.5-13.9-29.6-30.4-29.2h.2ZM195.2,201h52.3c7.2,0,13.1,6,13.1,13.1s-5.8,13.1-13.1,13.1h-52.3c-7.2,0-13.1-5.8-13.1-13.1s5.8-13.1,13.1-13.1Z"/>
</svg>