<?xml version="1.0" encoding="UTF-8"?>
<svg id="Layer_1" xmlns="http://www.w3.org/2000/svg" version="1.1" viewBox="0 0 595.3 595.3">
  <!-- Generator: Adobe Illustrator 30.2.1, SVG Export Plug-In . SVG Version: 2.1.1 Build 1)  -->
  <defs>
    <style>
      .st0 {
        fill: #00a1e5;
      }

      .st1 {
        fill: #fff;
      }
    </style>
  </defs>
  <path class="st0" d="M295.5,0C131.1,0-2.1,133.2-2.1,297.6s133.2,297.7,297.6,297.7,297.7-133.2,297.7-297.7S473.9,0,309.4,0"/>
  <g>
    <path class="st1" d="M320,422.7v-249.9c0-13.5-10.9-24.5-24.5-24.5s-24.5,10.9-24.5,24.5v249.9c0,13.5,10.9,24.5,24.5,24.5s24.5-10.9,24.5-24.5Z"/>
    <path class="st1" d="M394.9,372.6v-149.9c0-13.5-10.9-24.5-24.5-24.5s-24.5,10.9-24.5,24.5v149.9c0,13.5,10.9,24.5,24.5,24.5s24.5-10.9,24.5-24.5Z"/>
    <path class="st1" d="M469.9,322.7v-49.9c0-13.5-10.9-24.5-24.5-24.5s-24.5,10.9-24.5,24.5v49.9c0,13.5,10.9,24.5,24.5,24.5s24.5-10.9,24.5-24.5Z"/>
    <path class="st1" d="M169.8,322.7v-49.9c0-13.5-10.9-24.5-24.5-24.5s-24.5,10.9-24.5,24.5v49.9c0,13.5,10.9,24.5,24.5,24.5s24.5-10.9,24.5-24.5Z"/>
    <path class="st1" d="M244.8,372.6v-149.9c0-13.5-10.9-24.5-24.5-24.5s-24.5,10.9-24.5,24.5v149.9c0,13.5,10.9,24.5,24.5,24.5s24.5-10.9,24.5-24.5Z"/>
    <path class="st1" d="M45.6,322.1h25.1c13.5,0,24.5-10.9,24.5-24.5s-10.9-24.5-24.5-24.5h-25.1c-13.5,0-24.5,10.9-24.5,24.5s10.9,24.5,24.5,24.5Z"/>
    <path class="st1" d="M545.4,273.4h-25.1c-13.5,0-24.5,10.9-24.5,24.5s10.9,24.5,24.5,24.5h25.1c13.5,0,24.5-10.9,24.5-24.5s-10.9-24.5-24.5-24.5Z"/>
  </g>
</svg>