<?xml version="1.0" encoding="UTF-8"?>
<svg id="Layer_1" xmlns="http://www.w3.org/2000/svg" version="1.1" viewBox="0 0 595.3 595.3">
  <!-- Generator: Adobe Illustrator 30.2.1, SVG Export Plug-In . SVG Version: 2.1.1 Build 1)  -->
  <defs>
    <style>
      .st0 {
        fill: #ec5e00;
      }

      .st1 {
        fill: #fff;
      }
    </style>
  </defs>
  <path class="st0" d="M297.9,0C133.5,0,.3,133.3.3,297.6s133.3,297.7,297.6,297.7,297.6-133.3,297.6-297.7S462.3,0,297.9,0"/>
  <g>
    <path class="st1" d="M407.2,316.9c-7.1-8.9-10.9-19.7-10.9-31.1v-32.4c0-43.7-28.2-80.5-67.9-93.6v-11.3c0-11.8-9.5-21.1-21.1-21.1h-19.3c-11.8,0-21.3,9.5-21.3,21.1v10.9c-39.3,13.1-67.9,49.7-67.9,93.6v32.6c0,11.3-4,22.2-10.9,31.1l-24,29.7c-12.6,16.2-1.3,40.1,19.1,40.1h229.1c20.8,0,32.2-24,19.1-39.9l-24-29.7h-.2Z"/>
    <path class="st1" d="M447.2,211.6c-8.9-32.4-28.6-61.4-55.4-81.8-6.4-4.7-15.1-3.5-19.7,2.9-4.7,6.4-3.5,15.1,2.9,19.7,22,16.6,38.1,40.6,45.5,67,1.8,6.4,7.3,10.2,13.3,10.2s2.4,0,4-.4c7.1-2,11.5-10,9.5-17.7v.2Z"/>
    <path class="st1" d="M175.7,219.4c7.3-26.4,23.7-50.1,45.5-67,6.4-4.7,7.3-13.3,2.9-19.7-4.7-6.4-13.3-7.3-19.7-2.9-26.8,20.4-46.6,49.5-55.9,81.8-2,7.3,2.4,15.1,10,17.3,1.3.4,2.4.4,4,.4,6,.4,11.8-4,13.3-10h0Z"/>
    <path class="st1" d="M297.9,462.2c27.5,0,49.7-22.2,49.7-49.7h-99.6c0,27.5,22.2,49.7,49.7,49.7"/>
  </g>
</svg>