<?xml version="1.0" encoding="UTF-8"?>
<svg id="Layer_1" xmlns="http://www.w3.org/2000/svg" version="1.1" viewBox="0 0 595.3 595.3">
  <!-- Generator: Adobe Illustrator 30.2.1, SVG Export Plug-In . SVG Version: 2.1.1 Build 1)  -->
  <defs>
    <style>
      .st0 {
        fill: #00a1e5;
      }

      .st1 {
        fill: #fff;
      }
    </style>
  </defs>
  <circle class="st1" cx="296.5" cy="297.8" r="274.4"/>
  <path class="st0" d="M297.3,0C132.9,0-.3,133.2-.3,297.6s133.2,297.6,297.6,297.6,297.6-133.2,297.6-297.6S475.7,0,311.2,0"/>
  <g>
    <path class="st1" d="M339.7,508.6c27.6-27,28-71.4,1-98.8s-71.4-28-98.8-1c-27.6,27-28,71.4-1,98.8,27,27.6,71.4,28,98.8,1ZM268.5,436c12.5-12.3,32.6-12.1,44.9.4,12.3,12.5,12.1,32.6-.4,44.9-12.5,12.3-32.6,12.1-44.9-.4-12.3-12.5-12.1-32.6.4-44.9Z"/>
    <path class="st1" d="M156.5,394.3l54.7-53.5c10.9-10.7,25.3-16.5,40.6-16.3l89.7,1c25.5.2,49.5-9.3,67.8-27.2l48.9-47.9-.4,42.4c0,9.9,6.6,18.7,15.3,20.3,5.8,1,11.3-.4,15.7-4,4.4-3.6,7-8.9,7-14.5l.8-73.6c0-5.4-.8-10.1-2.4-14.1-5.4-12.9-17.7-21.5-31.6-21.5l-74.6-.8c-5.8,0-11.1,2.6-14.9,6.8-3.8,4.4-5.2,10.1-4,16.1,1.8,8.7,9.7,15.1,19.1,15.3l43.1.4-48.9,47.9c-10.9,10.7-25.3,16.5-40.6,16.3l-89.7-1c-25.5-.2-49.5,9.3-67.8,27.2l-54.7,53.5c-7.6,7.4-7.6,19.5-.2,27,7.4,7.6,19.5,7.6,27,.2h0Z"/>
    <path class="st1" d="M272.4,67.4c-3.6-3.6-8.4-5.6-13.5-5.8-10.5,0-19.1,8.4-19.3,18.9l-.4,43.9-43.9-.4c-10.5,0-19.1,8.4-19.3,18.9,0,5.2,1.8,9.9,5.4,13.5s8.4,5.6,13.5,5.8l43.9.4-.4,43.9c0,5.2,1.8,9.9,5.4,13.5,3.6,3.6,8.4,5.6,13.5,5.8,10.1,0,19.1-8.7,19.3-18.9l.4-43.9,43.9.4c10.1,0,19.1-8.7,19.3-18.9,0-5.2-1.8-9.9-5.4-13.5-3.6-3.6-8.4-5.6-13.5-5.8l-43.9-.4.4-43.9c0-5.2-1.8-9.9-5.4-13.5h0Z"/>
  </g>
</svg>