<?xml version="1.0" encoding="UTF-8"?>
<svg id="Layer_1" xmlns="http://www.w3.org/2000/svg" version="1.1" viewBox="0 0 595.3 595.3">
  <!-- Generator: Adobe Illustrator 30.2.1, SVG Export Plug-In . SVG Version: 2.1.1 Build 1)  -->
  <defs>
    <style>
      .st0 {
        fill: #00a1e5;
      }

      .st1 {
        fill: #fff;
      }
    </style>
  </defs>
  <path class="st0" d="M297.9,595.3c164.3,0,297.7-133.3,297.7-297.6S462.2,0,297.9,0,.3,133.3.3,297.7s133.3,297.6,297.7,297.6"/>
  <path class="st1" d="M350.4,309.9l-21.4,21.4c-8.1,8.1-19.2,12.8-30.8,12.8s-22.6-4.5-30.8-12.8l-21.4-21.4-115.8,115.8c3.6,1.7,7.3,2.6,11.3,2.6h313.6c3.9,0,7.7-.9,11.3-2.6l-115.8-115.8h0Z"/>
  <path class="st1" d="M478.4,181.8c1.7,3.6,2.6,7.3,2.6,11.3v209.1c0,3.9-.9,7.7-2.6,11.3l-115.8-115.8,115.8-115.8h0Z"/>
  <path class="st1" d="M117.6,181.8l115.8,115.8-115.8,115.8c-1.7-3.6-2.6-7.3-2.6-11.3v-209.1c0-3.9.9-7.7,2.6-11.3h0Z"/>
  <path class="st1" d="M466.2,169.4c-3.6-1.7-7.3-2.6-11.3-2.6H141.3c-3.9,0-7.7.9-11.3,2.6l149.7,149.7c4.9,4.9,11.5,7.7,18.4,7.7s13.5-2.8,18.4-7.7l149.7-149.7h0Z"/>
</svg>