<?xml version="1.0" encoding="UTF-8"?>
<svg id="Layer_1" xmlns="http://www.w3.org/2000/svg" version="1.1" viewBox="0 0 595.3 595.3">
  <!-- Generator: Adobe Illustrator 30.2.1, SVG Export Plug-In . SVG Version: 2.1.1 Build 1)  -->
  <defs>
    <style>
      .st0 {
        fill: #00a1e5;
      }

      .st1 {
        fill: #fff;
      }
    </style>
  </defs>
  <circle class="st1" cx="295" cy="297.6" r="273.7"/>
  <path class="st0" d="M114.1,460.4c30.5-33.9,70-58.7,113.9-71.2,43.8-12.7,90.5-12.7,134.3,0,43.8,12.5,83.3,37.3,113.9,71.2-30.4,34.3-69.8,59.3-113.7,72-43.8,12.7-90.7,12.7-134.5,0-43.8-12.7-83.3-37.7-113.7-72h-.2ZM295,149c25.2,0,49.2,9.9,67,27.8,17.7,17.9,27.8,41.9,27.8,67s-9.9,49.2-27.8,67c-17.9,17.9-41.9,27.8-67,27.8s-49.2-9.9-66.8-27.8c-17.7-17.9-27.8-41.9-27.8-67s9.9-49.2,27.8-67c17.9-17.9,41.9-27.8,66.8-27.8M514.6,498.5c6.3-7.1,12.5-14.5,18.1-22.2l2-2.2c5.2-7.3,9.9-14.7,14.7-22.2,1-1.2,2-2.6,2.8-4,4-7.3,7.7-14.7,11.3-22,0-2.2,2-4,3-6,3-6.9,6-14.3,8.3-21.6l3-7.3c2.2-6.9,4-14.1,6-21.4,0-3,1.6-6,2.2-8.7,1.6-7.5,2.8-14.9,3.8-22.4,0-3,0-5.8,1.4-8.7,1.2-10.5,1.6-21,1.6-31.7,0-79-31.3-154.7-87.1-210.7C449.7,31.3,374,0,295,0S140.5,31.3,84.5,87.3C28.8,143.2-2.6,219-2.6,297.9s.6,21.2,1.6,31.7c0,3,0,5.8,1.4,8.7,0,7.5,2.2,14.9,3.8,22.4,0,2.8,1.6,5.8,2.2,8.7,2,7.3,3.8,14.3,6,21.4l3,7.3c2.4,7.3,5.4,14.7,8.3,21.6l3,6c3.6,7.3,7.3,14.7,11.3,22l2.8,4c4.6,7.5,9.5,14.9,14.7,22.2l2,2.2c5.8,7.7,11.7,15.1,18.1,22.2,6.7,7.5,14.1,14.5,21.6,21.2,54.2,48.6,124.4,75.6,197.2,75.6s143-27,197.2-75.6c7.5-6.5,14.9-13.7,21.6-21.2h1.6Z"/>
</svg>